<svg xmlns="http://www.w3.org/2000/svg" width="378.462" height="140.339" viewBox="0 0 378.462 140.339">
  <g id="Group_41" data-name="Group 41" transform="translate(15.835 59.455) rotate(-47)">
    <g id="Group_46" data-name="Group 46">
      <path id="Path_38" data-name="Path 38" d="M25.071,26.371A1,1,0,0,0,26,27a.986.986,0,0,0,.371-.071A8.911,8.911,0,0,0,32,18.615v-.7a6.909,6.909,0,0,1,4.956-6.66l4.331-1.3a1,1,0,1,0-.574-1.916l-4.331,1.3A8.9,8.9,0,0,0,30,17.918v.7a6.92,6.92,0,0,1-4.371,6.456A1,1,0,0,0,25.071,26.371Z" transform="translate(-6.383 -6.819)" fill="#353bff"/>
      <path id="Path_62" data-name="Path 62" d="M25.071,26.371A1,1,0,0,0,26,27a.986.986,0,0,0,.371-.071A8.911,8.911,0,0,0,32,18.615v-.7a6.909,6.909,0,0,1,4.956-6.66l4.331-1.3a1,1,0,1,0-.574-1.916l-4.331,1.3A8.9,8.9,0,0,0,30,17.918v.7a6.92,6.92,0,0,1-4.371,6.456A1,1,0,0,0,25.071,26.371Z" transform="translate(72.532 83.672)" fill="#353bff"/>
      <path id="Path_89" data-name="Path 89" d="M25.071,26.371A1,1,0,0,0,26,27a.986.986,0,0,0,.371-.071A8.911,8.911,0,0,0,32,18.615v-.7a6.909,6.909,0,0,1,4.956-6.66l4.331-1.3a1,1,0,1,0-.574-1.916l-4.331,1.3A8.9,8.9,0,0,0,30,17.918v.7a6.92,6.92,0,0,1-4.371,6.456A1,1,0,0,0,25.071,26.371Z" transform="translate(241.742 215.303) rotate(-149)" fill="#353bff"/>
    </g>
    <g id="Group_45" data-name="Group 45">
      <path id="Path_55" data-name="Path 55" d="M25.071,26.371A1,1,0,0,0,26,27a.986.986,0,0,0,.371-.071A8.911,8.911,0,0,0,32,18.615v-.7a6.909,6.909,0,0,1,4.956-6.66l4.331-1.3a1,1,0,1,0-.574-1.916l-4.331,1.3A8.9,8.9,0,0,0,30,17.918v.7a6.92,6.92,0,0,1-4.371,6.456A1,1,0,0,0,25.071,26.371Z" transform="matrix(0.875, -0.485, 0.485, 0.875, 64.413, 70.134)" fill="#f95b21"/>
      <path id="Path_90" data-name="Path 90" d="M25.071,26.371A1,1,0,0,0,26,27a.986.986,0,0,0,.371-.071A8.911,8.911,0,0,0,32,18.615v-.7a6.909,6.909,0,0,1,4.956-6.66l4.331-1.3a1,1,0,1,0-.574-1.916l-4.331,1.3A8.9,8.9,0,0,0,30,17.918v.7a6.92,6.92,0,0,1-4.371,6.456A1,1,0,0,0,25.071,26.371Z" transform="translate(277.293 264.415) rotate(-132)" fill="#f95b21"/>
      <path id="Path_39" data-name="Path 39" d="M20.845,18.1l1.193,4.177A1,1,0,0,0,23,23a1.036,1.036,0,0,0,.275-.038,1,1,0,0,0,.688-1.236L22.77,17.548a6.528,6.528,0,0,1,.438-4.726,8.591,8.591,0,0,0,0-7.644L22.9,4.553a1,1,0,1,0-1.79.894l.313.625a6.577,6.577,0,0,1,0,5.856,8.532,8.532,0,0,0-.578,6.172Z" transform="translate(-18.951 -27.111)" fill="#f95b21"/>
      <path id="Path_54" data-name="Path 54" d="M53.1,20.1a1,1,0,1,0-1.862-.731l-1.649,4.21a6.929,6.929,0,0,1-7.044,4.395l-.7-.059A8.906,8.906,0,0,0,33.1,32.846a1,1,0,0,0,.449,1.341.988.988,0,0,0,.445.1,1,1,0,0,0,.9-.554,6.939,6.939,0,0,1,6.793-3.828l.7.059a8.915,8.915,0,0,0,9.07-5.657Z" transform="translate(108.905 119.01)" fill="#f95b21"/>
      <path id="Path_80" data-name="Path 80" d="M53.1,20.1a1,1,0,1,0-1.862-.731l-1.649,4.21a6.929,6.929,0,0,1-7.044,4.395l-.7-.059A8.906,8.906,0,0,0,33.1,32.846a1,1,0,0,0,.449,1.341.988.988,0,0,0,.445.1,1,1,0,0,0,.9-.554,6.939,6.939,0,0,1,6.793-3.828l.7.059a8.915,8.915,0,0,0,9.07-5.657Z" transform="translate(178.182 181.57)" fill="#f95b21"/>
    </g>
    <g id="Group_47" data-name="Group 47">
      <path id="Path_78" data-name="Path 78" d="M25.071,26.371A1,1,0,0,0,26,27a.986.986,0,0,0,.371-.071A8.911,8.911,0,0,0,32,18.615v-.7a6.909,6.909,0,0,1,4.956-6.66l4.331-1.3a1,1,0,1,0-.574-1.916l-4.331,1.3A8.9,8.9,0,0,0,30,17.918v.7a6.92,6.92,0,0,1-4.371,6.456A1,1,0,0,0,25.071,26.371Z" transform="translate(98.046 98.775) rotate(51)" fill="#bcbcbc"/>
      <path id="Path_79" data-name="Path 79" d="M25.071,26.371A1,1,0,0,0,26,27a.986.986,0,0,0,.371-.071A8.911,8.911,0,0,0,32,18.615v-.7a6.909,6.909,0,0,1,4.956-6.66l4.331-1.3a1,1,0,1,0-.574-1.916l-4.331,1.3A8.9,8.9,0,0,0,30,17.918v.7a6.92,6.92,0,0,1-4.371,6.456A1,1,0,0,0,25.071,26.371Z" transform="translate(177.373 136.922) rotate(51)" fill="#bcbcbc"/>
      <path id="Path_91" data-name="Path 91" d="M25.071,26.371A1,1,0,0,0,26,27a.986.986,0,0,0,.371-.071A8.911,8.911,0,0,0,32,18.615v-.7a6.909,6.909,0,0,1,4.956-6.66l4.331-1.3a1,1,0,1,0-.574-1.916l-4.331,1.3A8.9,8.9,0,0,0,30,17.918v.7a6.92,6.92,0,0,1-4.371,6.456A1,1,0,0,0,25.071,26.371Z" transform="matrix(0.899, -0.438, 0.438, 0.899, 6.799, -24.422)" fill="#bcbcbc"/>
      <path id="Path_40" data-name="Path 40" d="M53.1,20.1a1,1,0,1,0-1.862-.731l-1.649,4.21a6.929,6.929,0,0,1-7.044,4.395l-.7-.059A8.906,8.906,0,0,0,33.1,32.846a1,1,0,0,0,.449,1.341.988.988,0,0,0,.445.1,1,1,0,0,0,.9-.554,6.939,6.939,0,0,1,6.793-3.828l.7.059a8.915,8.915,0,0,0,9.07-5.657Z" transform="translate(36.77 16.728)" fill="#bcbcbc"/>
      <path id="Path_41" data-name="Path 41" d="M47.649,39.012a6.583,6.583,0,0,1,5.835.479l.6.363a1,1,0,1,0,1.039-1.708l-.6-.364a8.576,8.576,0,0,0-7.617-.626,6.533,6.533,0,0,1-4.746.05l-4.066-1.531a1,1,0,0,0-.705,1.871l4.066,1.531A8.514,8.514,0,0,0,47.649,39.012Z" transform="translate(199.229 218.157)" fill="#bcbcbc"/>
    </g>
    <g id="Group_48" data-name="Group 48">
      <path id="Path_68" data-name="Path 68" d="M42.58,17.5a2.587,2.587,0,1,0,2.587,2.587A2.587,2.587,0,0,0,42.58,17.5Z" transform="translate(24.808 -1.256)" fill="#e77712"/>
      <path id="Path_69" data-name="Path 69" d="M42.58,17.5a2.587,2.587,0,1,0,2.587,2.587A2.587,2.587,0,0,0,42.58,17.5Z" transform="translate(31.937 78.237)" fill="#e77712"/>
      <path id="Path_84" data-name="Path 84" d="M42.58,17.5a2.587,2.587,0,1,0,2.587,2.587A2.587,2.587,0,0,0,42.58,17.5Z" transform="translate(52.716 151.839)" fill="#e77712"/>
      <path id="Path_72" data-name="Path 72" d="M42.58,17.5a2.587,2.587,0,1,0,2.587,2.587A2.587,2.587,0,0,0,42.58,17.5Z" transform="translate(117.542 139.244)" fill="#e77712"/>
      <path id="Path_73" data-name="Path 73" d="M42.58,17.5a2.587,2.587,0,1,0,2.587,2.587A2.587,2.587,0,0,0,42.58,17.5Z" transform="translate(187.253 209.602)" fill="#e77712"/>
    </g>
    <g id="Group_49" data-name="Group 49">
      <path id="Path_70" data-name="Path 70" d="M42.58,17.5a2.587,2.587,0,1,0,2.587,2.587A2.587,2.587,0,0,0,42.58,17.5Z" transform="translate(94.748 103.072)" fill="#8f74ef"/>
      <path id="Path_85" data-name="Path 85" d="M42.58,17.5a2.587,2.587,0,1,0,2.587,2.587A2.587,2.587,0,0,0,42.58,17.5Z" transform="translate(81.023 171.931)" fill="#8f74ef"/>
      <path id="Path_74" data-name="Path 74" d="M42.58,17.5a2.587,2.587,0,1,0,2.587,2.587A2.587,2.587,0,0,0,42.58,17.5Z" transform="translate(145.535 208.853)" fill="#8f74ef"/>
      <path id="Path_44" data-name="Path 44" d="M14.5,20A2.5,2.5,0,1,1,12,22.5,2.5,2.5,0,0,1,14.5,20Z" transform="translate(10.983 14.34)" fill="#8f74ef"/>
    </g>
    <g id="Group_50" data-name="Group 50">
      <path id="Path_42" data-name="Path 42" d="M42.58,17.5a2.587,2.587,0,1,0,2.587,2.587A2.587,2.587,0,0,0,42.58,17.5Z" transform="translate(0 0)" fill="#f95b21"/>
      <path id="Path_71" data-name="Path 71" d="M42.58,17.5a2.587,2.587,0,1,0,2.587,2.587A2.587,2.587,0,0,0,42.58,17.5Z" transform="translate(68.011 58.27)" fill="#f95b21"/>
      <path id="Path_75" data-name="Path 75" d="M42.58,17.5a2.587,2.587,0,1,0,2.587,2.587A2.587,2.587,0,0,0,42.58,17.5Z" transform="translate(159.265 241.172)" fill="#f95b21"/>
      <path id="Path_43" data-name="Path 43" d="M51,49.281A2.276,2.276,0,1,0,48.724,47,2.276,2.276,0,0,0,51,49.281Z" transform="translate(0 0)" fill="#f95b21"/>
      <path id="Path_53" data-name="Path 53" d="M14.5,20A2.5,2.5,0,1,1,12,22.5,2.5,2.5,0,0,1,14.5,20Z" transform="translate(-3.666 23.928)" fill="#f95b21"/>
    </g>
    <path id="Path_45" data-name="Path 45" d="M49.553,31.1l-2,1a1,1,0,1,0,.894,1.79l2-1a1,1,0,1,0-.894-1.79Z" transform="translate(11.335 0.929)"/>
    <path id="Path_46" data-name="Path 46" d="M29,8a1,1,0,0,0,1-1V4a1,1,0,0,0-2,0V7A1,1,0,0,0,29,8Z" transform="translate(-5.305 -15.698)"/>
    <path id="Path_47" data-name="Path 47" d="M39,51h4a1,1,0,0,0,0-2H39a1,1,0,0,0,0,2Z"/>
    <path id="Path_63" data-name="Path 63" d="M39,51h4a1,1,0,0,0,0-2H39a1,1,0,0,0,0,2Z" transform="translate(48.283 35.648)"/>
    <path id="Path_64" data-name="Path 64" d="M39,51h4a1,1,0,0,0,0-2H39a1,1,0,0,0,0,2Z" transform="translate(67.293 140.262) rotate(-82)"/>
    <path id="Path_65" data-name="Path 65" d="M39,51h4a1,1,0,0,0,0-2H39a1,1,0,0,0,0,2Z" transform="matrix(0.656, -0.755, 0.755, 0.656, 90.237, 110.135)"/>
    <path id="Path_66" data-name="Path 66" d="M39,51h4a1,1,0,0,0,0-2H39a1,1,0,0,0,0,2Z" transform="translate(125.223 103.339) rotate(-7)"/>
    <path id="Path_67" data-name="Path 67" d="M39,51h4a1,1,0,0,0,0-2H39a1,1,0,0,0,0,2Z" transform="translate(180.976 159.198) rotate(19)"/>
    <path id="Path_81" data-name="Path 81" d="M39,51h4a1,1,0,0,0,0-2H39a1,1,0,0,0,0,2Z" transform="translate(123.666 183.607) rotate(-28)"/>
    <path id="Path_82" data-name="Path 82" d="M39,51h4a1,1,0,0,0,0-2H39a1,1,0,0,0,0,2Z" transform="translate(81.669 150.302) rotate(-28)"/>
    <path id="Path_86" data-name="Path 86" d="M39,51h4a1,1,0,0,0,0-2H39a1,1,0,0,0,0,2Z" transform="translate(10.189 110.306) rotate(-28)"/>
    <path id="Path_83" data-name="Path 83" d="M39,51h4a1,1,0,0,0,0-2H39a1,1,0,0,0,0,2Z" transform="matrix(0.105, -0.995, 0.995, 0.105, -3.531, 138.238)"/>
    <path id="Path_87" data-name="Path 87" d="M39,51h4a1,1,0,0,0,0-2H39a1,1,0,0,0,0,2Z" transform="matrix(0.105, -0.995, 0.995, 0.105, 49.162, 229.935)"/>
    <path id="Path_48" data-name="Path 48" d="M33.684,25.948a1,1,0,0,0,1.264-.632l1-3a1,1,0,0,0-1.9-.632l-1,3a1,1,0,0,0,.636,1.264Z" transform="translate(7.453 9.458)"/>
    <g id="Group_44" data-name="Group 44">
      <path id="Path_56" data-name="Path 56" d="M7.546,31.192a1,1,0,0,0-1.642.389l-.622,1.792L3.6,34.258a1,1,0,0,0-.136,1.681l1.511,1.146L5.3,38.953a1,1,0,0,0,1.556.65l1.56-1.083,1.878.269a1,1,0,0,0,1.1-1.28l-.55-1.816.836-1.7a1,1,0,0,0-.877-1.441l-1.9-.039Z" transform="translate(66.598 36.221)" fill="#8ac5cc"/>
      <path id="Path_57" data-name="Path 57" d="M7.546,31.192a1,1,0,0,0-1.642.389l-.622,1.792L3.6,34.258a1,1,0,0,0-.136,1.681l1.511,1.146L5.3,38.953a1,1,0,0,0,1.556.65l1.56-1.083,1.878.269a1,1,0,0,0,1.1-1.28l-.55-1.816.836-1.7a1,1,0,0,0-.877-1.441l-1.9-.039Z" transform="translate(135.498 69.051)" fill="#8ac5cc"/>
      <path id="Path_76" data-name="Path 76" d="M7.546,31.192a1,1,0,0,0-1.642.389l-.622,1.792L3.6,34.258a1,1,0,0,0-.136,1.681l1.511,1.146L5.3,38.953a1,1,0,0,0,1.556.65l1.56-1.083,1.878.269a1,1,0,0,0,1.1-1.28l-.55-1.816.836-1.7a1,1,0,0,0-.877-1.441l-1.9-.039Z" transform="translate(115.101 126.357)" fill="#8ac5cc"/>
      <path id="Path_77" data-name="Path 77" d="M7.546,31.192a1,1,0,0,0-1.642.389l-.622,1.792L3.6,34.258a1,1,0,0,0-.136,1.681l1.511,1.146L5.3,38.953a1,1,0,0,0,1.556.65l1.56-1.083,1.878.269a1,1,0,0,0,1.1-1.28l-.55-1.816.836-1.7a1,1,0,0,0-.877-1.441l-1.9-.039Z" transform="translate(158.174 149.087)" fill="#8ac5cc"/>
    </g>
    <g id="Group_42" data-name="Group 42">
      <path id="Path_51" data-name="Path 51" d="M7.546,31.192a1,1,0,0,0-1.642.389l-.622,1.792L3.6,34.258a1,1,0,0,0-.136,1.681l1.511,1.146L5.3,38.953a1,1,0,0,0,1.556.65l1.56-1.083,1.878.269a1,1,0,0,0,1.1-1.28l-.55-1.816.836-1.7a1,1,0,0,0-.877-1.441l-1.9-.039Z" transform="translate(-8.776 -13.816)" fill="#fe9c21"/>
      <path id="Path_58" data-name="Path 58" d="M7.546,31.192a1,1,0,0,0-1.642.389l-.622,1.792L3.6,34.258a1,1,0,0,0-.136,1.681l1.511,1.146L5.3,38.953a1,1,0,0,0,1.556.65l1.56-1.083,1.878.269a1,1,0,0,0,1.1-1.28l-.55-1.816.836-1.7a1,1,0,0,0-.877-1.441l-1.9-.039Z" transform="translate(110.928 83.759)" fill="#fe9c21"/>
      <path id="Path_60" data-name="Path 60" d="M7.546,31.192a1,1,0,0,0-1.642.389l-.622,1.792L3.6,34.258a1,1,0,0,0-.136,1.681l1.511,1.146L5.3,38.953a1,1,0,0,0,1.556.65l1.56-1.083,1.878.269a1,1,0,0,0,1.1-1.28l-.55-1.816.836-1.7a1,1,0,0,0-.877-1.441l-1.9-.039Z" transform="translate(202.939 204.424)" fill="#fe9c21"/>
      <path id="Path_61" data-name="Path 61" d="M7.546,31.192a1,1,0,0,0-1.642.389l-.622,1.792L3.6,34.258a1,1,0,0,0-.136,1.681l1.511,1.146L5.3,38.953a1,1,0,0,0,1.556.65l1.56-1.083,1.878.269a1,1,0,0,0,1.1-1.28l-.55-1.816.836-1.7a1,1,0,0,0-.877-1.441l-1.9-.039Z" transform="translate(162.832 198.07)" fill="#fe9c21"/>
    </g>
    <g id="Group_43" data-name="Group 43">
      <path id="Path_49" data-name="Path 49" d="M56.951,8.637a1,1,0,0,0-.7-.659L54.414,7.5,53.4,5.9a1.04,1.04,0,0,0-1.688,0L50.69,7.5l-1.836.474a1,1,0,0,0-.521,1.6l1.206,1.464-.116,1.892a1,1,0,0,0,1,1.062.986.986,0,0,0,.366-.069l1.765-.7,1.764.7a1,1,0,0,0,1.365-.992l-.116-1.893,1.206-1.464A1,1,0,0,0,56.951,8.637Z" transform="translate(2.49 -10.526)" fill="#8f74ef"/>
      <path id="Path_50" data-name="Path 50" d="M29.1,58.374a1,1,0,0,0,.777.566l1.882.241,1.211,1.458a1,1,0,0,0,.769.361,1.065,1.065,0,0,0,.126-.008,1,1,0,0,0,.779-.565l.809-1.715,1.762-.7a1,1,0,0,0,.315-1.657l-1.38-1.3-.123-1.893a1,1,0,0,0-1.478-.812l-1.663.912-1.838-.468a1,1,0,0,0-1.232,1.155l.354,1.863-1.014,1.6A1,1,0,0,0,29.1,58.374Z" transform="translate(40.94 55.932)" fill="#8f74ef"/>
      <path id="Path_59" data-name="Path 59" d="M7.546,31.192a1,1,0,0,0-1.642.389l-.622,1.792L3.6,34.258a1,1,0,0,0-.136,1.681l1.511,1.146L5.3,38.953a1,1,0,0,0,1.556.65l1.56-1.083,1.878.269a1,1,0,0,0,1.1-1.28l-.55-1.816.836-1.7a1,1,0,0,0-.877-1.441l-1.9-.039Z" transform="translate(195.742 167.38)" fill="#8f74ef"/>
      <path id="Path_88" data-name="Path 88" d="M7.546,31.192a1,1,0,0,0-1.642.389l-.622,1.792L3.6,34.258a1,1,0,0,0-.136,1.681l1.511,1.146L5.3,38.953a1,1,0,0,0,1.556.65l1.56-1.083,1.878.269a1,1,0,0,0,1.1-1.28l-.55-1.816.836-1.7a1,1,0,0,0-.877-1.441l-1.9-.039Z" transform="translate(72.88 160.26)" fill="#8f74ef"/>
    </g>
  </g>
</svg>
