<svg xmlns="http://www.w3.org/2000/svg" width="36" height="36.002" viewBox="0 0 36 36.002">
  <path id="Icon_awesome-flag-usa" fill="#f70404" data-name="Icon awesome-flag-usa" d="M2.25,0A2.248,2.248,0,0,0,0,2.25V34.875A1.128,1.128,0,0,0,1.125,36h2.25A1.128,1.128,0,0,0,4.5,34.875V2.25A2.248,2.248,0,0,0,2.25,0ZM21.087,21.347c-4.022-1.062-7.854-2.025-14.337.78V27c13.057-6.483,15.588,3.748,27.949-1.624A2.207,2.207,0,0,0,36,23.351V20.82a21.3,21.3,0,0,1-7.882,1.695,26.777,26.777,0,0,1-7.031-1.167Zm0-6.75c-4.022-1.062-7.854-2.025-14.337.78V19.7c6.666-2.644,10.87-1.6,14.913-.534,4.022,1.062,7.854,2.025,14.337-.78V14.063a21.3,21.3,0,0,1-7.882,1.695,26.5,26.5,0,0,1-7.031-1.16Zm.668-8.852C25.4,6.841,28.6,7.784,36,4.331V2.166A2.283,2.283,0,0,0,32.527.3C20.482,6.434,21.473-4.373,6.75,2.278v10.68c6.666-2.637,10.87-1.6,14.913-.534,4.022,1.055,7.854,2.018,14.337-.78V6.8a22.012,22.012,0,0,1-8.866,2.208,19.708,19.708,0,0,1-6.026-1.118c-.281-.084-.57-.169-.851-.246V5.309c.506.141,1.005.288,1.5.436ZM11.25,9.007a1.125,1.125,0,1,1,1.125-1.125A1.124,1.124,0,0,1,11.25,9.007Zm0-3.923a1.125,1.125,0,1,1,1.125-1.125A1.124,1.124,0,0,1,11.25,5.084Zm4.5,3.368a1.125,1.125,0,1,1,1.125-1.125A1.124,1.124,0,0,1,15.75,8.452Zm0-3.93A1.125,1.125,0,1,1,16.875,3.4,1.124,1.124,0,0,1,15.75,4.521Z" transform="translate(0 0.002)"/>
</svg>
