<svg xmlns="http://www.w3.org/2000/svg" width="107.011" height="178.353" viewBox="0 0 107.011 178.353">
  <g id="humaaans_standing-11" data-name="humaaans/standing-11" transform="translate(-66.564 -56.02)">
    <g id="A-Human_Standing" data-name="A-Human/Standing" transform="translate(66.564 56.02)">
      <g id="Head_Front_Short-Beard" data-name="Head/Front/Short-Beard" transform="translate(49.117 0)">
        <g id="Head" transform="translate(0.05 0.89)">
          <path id="Path_14" data-name="Path 14" d="M3.712,15.5A12.171,12.171,0,0,1,.475,6.751C1.149-2.864,14.533-.749,17.137,4.1s2.294,17.162-1.071,18.029c-1.342.346-4.2-.5-7.11-2.255L10.783,32.8H0Z" fill="#725234" fill-rule="evenodd"/>
        </g>
        <path id="Hair" d="M63.434,37.722q.619,8.624,3.275,8.624c2.656,0,4.91-1.686,6.076-1.686.85,0,.66,1.063.1,1.852-.465.65-2.728,1.277-2.728,2.286s1.788.228,1.788.826c0,.989.314,2.849-1.4,2.849-1.738,0-6.72-.633-7.573-3.212q-.826-2.5-1.069-10.346a2.724,2.724,0,0,0-.321-.019,2.7,2.7,0,0,0-1.884,4.624c-.624.88-1.323,1.8-2.124,2.749-3.009-1.805-5.242-7.091-2.3-12.168A6.657,6.657,0,0,1,60.1,29.668a7.82,7.82,0,0,1,5.133-.378,16.7,16.7,0,0,1,6.493,1.73c0,2.864-.555,3.714-5.3,3.639A8.744,8.744,0,0,0,63.434,37.722Z" transform="translate(-53.889 -29.02)" fill="#191847" fill-rule="evenodd"/>
      </g>
      <g id="Bottom_Standing_Skinny-Jeans" data-name="Bottom/Standing/Skinny-Jeans" transform="translate(20.413 70.976)">
        <path id="Leg" d="M128,0l16.288,57.16,11.884,42.13h8.668L152.212,0Z" transform="translate(-102.841 0)" fill="#191847" fill-rule="evenodd"/>
        <path id="Leg-2" data-name="Leg" d="M93.787,0c-.377,29.461-1.661,45.529-2.057,48.206s-6.377,19.7-17.944,51.083h8.979q22.088-45.154,24.661-51.083C109.141,44.253,114.433,28.185,122.4,0Z" transform="translate(-72.984)" fill="#2f3676" fill-rule="evenodd"/>
        <g id="Accessories_Shoe_Flat-Pointy" data-name="Accessories/Shoe/Flat-Pointy" transform="translate(0 97.942)">
          <path id="Shoe" d="M0,28.435.449,19H9.884q6.711,4.717,17.522,7.638v1.8H10.333l-5.841-.9v.9Z" transform="translate(0 -19)" fill="#191847" fill-rule="evenodd"/>
        </g>
        <g id="Accessories_Shoe_Flat-Pointy-2" data-name="Accessories/Shoe/Flat-Pointy" transform="translate(52.116 97.942)">
          <path id="Shoe-2" data-name="Shoe" d="M0,28.435.449,19H9.884q6.711,4.717,17.522,7.638v1.8H10.333l-5.841-.9v.9Z" transform="translate(0 -19)" fill="#191847" fill-rule="evenodd"/>
        </g>
      </g>
      <g id="Body_Lab-Coat" data-name="Body/Lab-Coat" transform="translate(0 23.57)">
        <path id="Skin" d="M88.037,82.511l13.562,11.5a38.576,38.576,0,0,1,9.445,4.585c.575.6,1.239,1.789-1.3,1.415s-5.218-.654-5.63.191,1.057,1.992.264,3.115q-.793,1.123-6.305-6.352L84.33,90.1ZM26.625,77.536l7.957,1.156q-12.812,27.8-13.738,29.4c-1.388,2.407.244,6.6.883,8.817-3.225.931-2.2-4.051-6.273-2.809-3.722,1.134-6.794,3.706-10.48.648-.453-.376-.835-1.605.606-2.322,3.589-1.785,8.858-5.05,9.677-6.253Q16.932,103.714,26.625,77.536Z" transform="translate(-4.564 -42.468)" fill="#715234" fill-rule="evenodd"/>
        <path id="Coat-Back" d="M0,2.054,4.77,0c8.119,16.062,19.466,31.3,37.259,43.448l-3.486,7.443C23.2,43.572,8.8,38.1,2.068,25.7-.192,21.531.3,7.244,0,2.054Z" transform="translate(55.498 0.582) rotate(5)" fill="#c5cfd6" fill-rule="evenodd"/>
        <path id="Shirt" d="M90,50.358q21.187,2.246,33.352,0c1-.186,1.163-1.868.7-3.01-7.257-17.781-12.233-33.3-12.233-45.645q-2,1.007-6.991.3C95.879,14.732,91.767,29.335,90,50.358Z" transform="translate(-51.616 -0.705)" fill="#323337" fill-rule="evenodd"/>
        <path id="Coat-Front" d="M68.893-.286h3.729C73.49,4.82,76.228,73.962,84.681,96.58H38.943c.992-20.72,8.814-45.61,16.737-66.437Q45.17,39.76,37.36,62.735l-8.567-2.2Q38.348,19.362,68.083.01l.128-.3h.33l.365-.233Z" transform="translate(-17.907 0.519)" fill="#dde3e9" fill-rule="evenodd"/>
      </g>
    </g>
  </g>
</svg>
