<svg xmlns="http://www.w3.org/2000/svg" width="136.025" height="174.456" viewBox="0 0 136.025 174.456">
  <g id="humaaans_sitting-4" data-name="humaaans/sitting-4" transform="translate(-18 -38)">
    <g id="A-Human_Sitting" data-name="A-Human/Sitting" transform="translate(154.025 212.456) rotate(180)">
      <g id="Head_Front_Curly" data-name="Head/Front/Curly" transform="translate(29.835 128.946)">
        <g id="Head" transform="translate(12.136 0)">
          <path id="Path_37" data-name="Path 37" d="M4.178,19.473A13.7,13.7,0,0,0,.534,29.316c.759,10.822,15.823,8.441,18.754,2.979S21.87,12.979,18.083,12c-1.51-.389-4.728.564-8,2.538L12.136,0H0Z" fill="#b28b67" fill-rule="evenodd"/>
        </g>
        <path id="hair" d="M36.8,25.708a2.625,2.625,0,0,1-1.838,1.864,2.421,2.421,0,0,1-.676.067c-.082,0-.1-.027-.143.03a.748.748,0,0,0-.041.2,3.5,3.5,0,0,1-1.034,1.789,4.515,4.515,0,0,1-2.712,1.283,3.954,3.954,0,0,1-1.63-.222,6.456,6.456,0,0,1-.792-.338c-.077-.039-.328-.228-.405-.216s-.258.226-.327.28a4.793,4.793,0,0,1-2.994.912,5.481,5.481,0,0,1-3.383-.807,6.766,6.766,0,0,1-.611-.507c-.1-.095-.2-.193-.295-.3q-.085-.093-.165-.19c-.09-.11-.076-.146-.2-.069a2.515,2.515,0,0,1-1.615.363,3.613,3.613,0,0,1-.975-.275c-.106-.045-.351-.226-.464-.228s-.353.166-.469.208a3.843,3.843,0,0,1-1.948.18,5.03,5.03,0,0,1-1.91-.751,2.568,2.568,0,0,1-.708-.644c-.083-.115-.158-.237-.253-.343-.055-.062-.165-.126-.194-.205a4.2,4.2,0,0,1-.81.357A1.994,1.994,0,0,1,9.067,28.1a4.53,4.53,0,0,1-1.8-1.276,5.1,5.1,0,0,1-.665-.893q-.136-.23-.249-.472a1.757,1.757,0,0,0-.109-.246c-.062-.091-.1-.092-.217-.132a3.5,3.5,0,0,1-1.492-1,3.44,3.44,0,0,1-.773-1.638.835.835,0,0,0-.031-.2c-.028-.026-.144-.015-.187-.02a3.937,3.937,0,0,1-.448-.079,3.7,3.7,0,0,1-.789-.284A4.12,4.12,0,0,1,.291,19.45,4.893,4.893,0,0,1,.368,16.1a3.273,3.273,0,0,1,.249-.491c.06-.1.079-.1.04-.2s-.122-.22-.173-.329a4.729,4.729,0,0,1-.357-1.12,5.253,5.253,0,0,1-.062-1.936,2.8,2.8,0,0,1,.3-.849,2.437,2.437,0,0,1,.262-.38c.051-.061.106-.12.163-.176a1.09,1.09,0,0,0,.1-.1c.068-.087.082-.016.047-.144a5.732,5.732,0,0,0-.228-.53c-.07-.18-.133-.362-.191-.545A8.043,8.043,0,0,1,.242,8.172,3.568,3.568,0,0,1,.494,5.964a2.208,2.208,0,0,1,.625-.744,2.318,2.318,0,0,1,.41-.249c.074-.035.169-.05.2-.122s-.018-.231-.03-.318a5.293,5.293,0,0,1,.062-2.28A3.15,3.15,0,0,1,3.013.575,3.885,3.885,0,0,1,6.9.465a4.077,4.077,0,0,1,.867.6C8.429.166,9.8.194,10.769.449a4.317,4.317,0,0,1,2.743,2.266,1.827,1.827,0,0,1,2.9.381,2.419,2.419,0,0,1,.245.8c.02.145.007.292.022.435a2.25,2.25,0,0,0,.212.539,2.976,2.976,0,0,1,.226,1.075,5.456,5.456,0,0,1-.041.577,1.983,1.983,0,0,0,.059.507,2.318,2.318,0,0,0-.982.123,1.938,1.938,0,0,0-.759.534,4.428,4.428,0,0,0-.955,1.785c-.432,1.413-.255,3.109,1.167,3.885a7.325,7.325,0,0,0,3.435.182c.829-.188,1.77-2.018,1.816-2.19.029-.106.014-.238.112-.309.215-.156.569.115.728.248a2.871,2.871,0,0,1,.638.848,10.5,10.5,0,0,1,.875,2.146c.162.572.265,1.161.476,1.719a2.629,2.629,0,0,0,1.057,1.364,9.309,9.309,0,0,0,1.819.736,4.514,4.514,0,0,1,1.683.924,2.325,2.325,0,0,1,.289.322c.066.092.131.269.232.327.157.091.385-.146.52-.232a6.013,6.013,0,0,0,1.674-1.662A10.34,10.34,0,0,0,32.075,15.8a5.721,5.721,0,0,1,.748-1.65,3.154,3.154,0,0,1,1.881-.143,2.377,2.377,0,0,1,1.026.888,1.38,1.38,0,0,1,.117.9c-.036.182-.11.353-.15.532a1.658,1.658,0,0,1-.138.431,1.062,1.062,0,0,1-.662.527,3.108,3.108,0,0,1,.715.97,4.161,4.161,0,0,1,.37,1.263,1.534,1.534,0,0,1-.2.984,2.591,2.591,0,0,1-.84.7,5.465,5.465,0,0,1,1.17,1.274A3.976,3.976,0,0,1,36.8,25.708Z" transform="translate(0 14.159)" fill="#191847" fill-rule="evenodd"/>
      </g>
      <g id="Bottom_Sitting_Sweat-Pants" data-name="Bottom/Sitting/Sweat-Pants" transform="translate(0 0)">
        <g id="Objects_Seat_Cube-2" data-name="Objects/Seat/Cube-2" transform="translate(0 0)">
          <path id="Seat" d="M8.091,65.737H66.243a8.293,8.293,0,0,0,8.091-8.482V8.482A8.293,8.293,0,0,0,66.243,0H8.091A8.293,8.293,0,0,0,0,8.482V57.255A8.293,8.293,0,0,0,8.091,65.737Zm8.091-14.844a2.073,2.073,0,0,1-2.023-2.121V16.964a2.073,2.073,0,0,1,2.023-2.121H58.152a2.073,2.073,0,0,1,2.023,2.121V48.773a2.073,2.073,0,0,1-2.023,2.121Z" fill="#c5cfd6" fill-rule="evenodd"/>
        </g>
        <path id="Skin" d="M77.049,0C70.57,14.34,65.885,26.827,64,33.415c-3.22,11.28-5.67,21.206-6.289,24.913-1.477,8.839,11.358,9.354,13.055,4.961C73.337,56.64,77.82,34.794,83.206,1.8ZM1.9,45c5.945,2.35,26.762,9.7,36.8,11.783,2.885.6,5.682,1.153,8.311,1.655,7.815,1.492,11.863-12.606,4.337-13.689-18.744-2.7-45.316-5.483-47.59-5.8C.569,38.518-1.84,43.526,1.9,45Z" transform="translate(33.444 4.723)" fill="#b28b67" fill-rule="evenodd"/>
        <path id="Leg-Back" d="M32.154,50.175,0,66.544v3.563H3.824q46.662-11.89,47.688-15.24.011-.036.02-.072l.046-.062c6.165-8.478,9.857-49.871,11.069-52.97L50.834,0C46.315,16.757,31.857,28.43,32.241,48.5A6.575,6.575,0,0,0,32.154,50.175Z" transform="translate(53.095 16.868)" fill="#ce4615" fill-rule="evenodd"/>
        <path id="Leg-Front" d="M25.427,12.779c-2.942.589-5.651,1.115-7.97,1.521C2.482,16.927-1.884,24.943.7,42.432h27.59C32.8,41.137,56.217,31.315,68.37,26.09c8.043-3.458,5.508-15.923.953-19.167a.445.445,0,0,0-.253-.395C44.568-3.626,25.185,1.7,18.71,0l-3,9.448Z" transform="translate(30.34 44.543)" fill="#f95b21" fill-rule="evenodd"/>
        <g id="Accessories_Shoe_Flat-Sneaker" data-name="Accessories/Shoe/Flat-Sneaker" transform="matrix(0.438, -0.899, 0.899, 0.438, 30.366, 48.754)">
          <path id="shoe" d="M.849,7.382A10.858,10.858,0,0,1,0,3.992,25.373,25.373,0,0,1,.456,0H28.976q1.112,3.675-1.284,3.968t-3.98.529l-13.256,5.91a.506.506,0,0,1-.668-.256l-.006-.013L8.932,8.071a9.094,9.094,0,0,0-3.6-1.035,8.161,8.161,0,0,0-3.111.91h0a1.011,1.011,0,0,1-1.341-.5Q.861,7.416.849,7.382Z" transform="translate(0 0)" fill="#e4e4e4" fill-rule="evenodd"/>
        </g>
        <g id="Accessories_Shoe_Flat-Sneaker-2" data-name="Accessories/Shoe/Flat-Sneaker" transform="translate(106.696)">
          <path id="shoe-2" data-name="shoe" d="M.849,7.382A10.858,10.858,0,0,1,0,3.992,25.373,25.373,0,0,1,.456,0H28.976q1.112,3.675-1.284,3.968t-3.98.529l-13.256,5.91a.506.506,0,0,1-.668-.256l-.006-.013L8.932,8.071a9.094,9.094,0,0,0-3.6-1.035,8.161,8.161,0,0,0-3.111.91h0a1.011,1.011,0,0,1-1.341-.5Q.861,7.416.849,7.382Z" transform="translate(0)" fill="#e4e4e4" fill-rule="evenodd"/>
        </g>
      </g>
      <g id="Body_Jacket" data-name="Body/Jacket" transform="translate(1.599 48.465)">
        <path id="Skin-2" data-name="Skin" d="M80.847,46.539,95.172,32.565a43.418,43.418,0,0,0,10.245-5.889c.6-.722,1.25-2.106-1.566-1.487s-5.807,1.144-6.337.228,1.031-2.32.052-3.519q-.978-1.2-6.581,7.626l-14.9,8.782ZM17.266,44.568l10.567-.042Q18.046,12.932,17.266,11C16.1,8.1,18.572,3.683,19.631,1.31,16.182-.234,16.55,5.481,12.2,3.457,8.229,1.61,5.208-1.737.62,1.093.056,1.441-.562,2.752.931,3.776c3.721,2.551,9.082,7.016,9.807,8.486Q12.22,15.268,17.266,44.568Z" transform="translate(0 0)" fill="#b28b67" fill-rule="evenodd"/>
        <path id="Coat-Back" d="M0,64.894l4.291,1.128Q18,38.9,48.038,18.391L35.418,0C14.826,20.166,1.341,41.65,0,64.894Z" transform="translate(41.64 24.262) rotate(-5)" fill="#191847" fill-rule="evenodd"/>
        <path id="Shirt" d="M0,0H38.937Q25.406,32.9,25.406,55.9L13.66,57.646C4.43,42.8,1.823,24.523,0,0Z" transform="translate(28.235 33.959)" fill="#dde3e9" fill-rule="evenodd"/>
        <path id="Coat-Front" d="M31.11,74.325l0,.008h.767q1.376-.047,4.192-.171l2.838-8.111q.45-14.833,5.259-59.785H18.647q.1-3.1.331-6.267H0Q4.258,48.041,31.1,74.334Z" transform="translate(10.537 17.272)" fill="#2f3676" fill-rule="evenodd"/>
        <path id="Shade" d="M1.763,26.683Q2.853,7.33,7.219,0H.084A133.416,133.416,0,0,0,1.763,26.683Z" transform="translate(29.107 23.34)" fill="rgba(0,0,0,0.1)" fill-rule="evenodd"/>
        <path id="Light" d="M0,0,12.586,5.851V0Z" transform="translate(34.865 39.016)" fill="rgba(255,255,255,0.2)" fill-rule="evenodd"/>
      </g>
    </g>
  </g>
</svg>
