<svg xmlns="http://www.w3.org/2000/svg" width="166" height="175" viewBox="0 0 166 175">
  <g id="Group_16" data-name="Group 16" transform="translate(-129 -198)">
    <g id="Group_10" data-name="Group 10" transform="translate(4 123)">
      <path id="Exclusion_1" data-name="Exclusion 1" d="M-390.56-1557.741h0l-13.79-15.212a40.574,40.574,0,0,0,10.48-9.249c-8.347-9.31-15.827-17.694-15.71-18.029a52.088,52.088,0,0,0,.432-5.246,14.154,14.154,0,0,1-.153-1.587,4.826,4.826,0,0,0-.278-1.475l-1.543-2.96-3.845-7.186-.723,7.775,0,.079a1.006,1.006,0,0,1-.982.658l-5-.143a92.521,92.521,0,0,1-14.463,6.423c.958-1.352.686-2.72-.812-4.067a.284.284,0,0,1-.118-.305.286.286,0,0,1,.262-.2c.114-.008.242-.011.38-.011.662,0,1.488.087,2.092.151.3.032.555.059.715.067l.1,0c.615,0,.741-.311.742-.314a8.639,8.639,0,0,0,2.418-3.571c.08-.185.163-.376.244-.551.459-.994-.03-1.686-.6-2.487-.086-.122-.184-.261-.278-.4a1.181,1.181,0,0,0-.979-.622.958.958,0,0,0-.454.114c-3.671,1.033-6.48,2.089-8.531,2.859l-.008,0c-.577.217-1.075.4-1.505.557-1.906.679-1.765,2.025-1.763,2.038-.34,4.209,1.756,11.957,2.239,12.981s2.2,1.376,2.217,1.38a72.556,72.556,0,0,1,8.665,1.795c1.749.572,4.339,1.141,6.231,1.557h.006a22.483,22.483,0,0,1,2.255.545,2.177,2.177,0,0,1,.534.345l1.6,1.274,16.137,17.8A40.413,40.413,0,0,1-425.5-1567a40.248,40.248,0,0,1-15.764-3.183,40.364,40.364,0,0,1-12.873-8.679,40.364,40.364,0,0,1-8.679-12.874A40.247,40.247,0,0,1-466-1607.5a40.246,40.246,0,0,1,3.183-15.764,40.364,40.364,0,0,1,8.679-12.874,40.366,40.366,0,0,1,12.873-8.679A40.248,40.248,0,0,1-425.5-1648a40.248,40.248,0,0,1,15.764,3.183,40.367,40.367,0,0,1,12.873,8.679,40.365,40.365,0,0,1,8.679,12.874A40.245,40.245,0,0,1-385-1607.5a40.394,40.394,0,0,1-2.354,13.638,40.348,40.348,0,0,1-6.516,11.659l1.4,1.566c6.306,7.032,12.261,13.674,12.132,13.79l-10.226,9.1Zm-43.125-50.17a.79.79,0,0,0-.689.768c-.009.363.266.594.738.619.036,0,.075,0,.115,0a24.047,24.047,0,0,0,4.506-.866.823.823,0,0,0,.338-.177.651.651,0,0,0,.212-.544l-.307-4.672a.613.613,0,0,1-.039.067c-.622,1.013-1.789,2.876-2.619,3.976-.489.725-.875,1.035-1.29,1.035a1.684,1.684,0,0,1-.5-.1,2.8,2.8,0,0,0-.384-.1A.493.493,0,0,0-433.685-1607.911Zm6.181-15.615a1.445,1.445,0,0,0-1.085.491,1.367,1.367,0,0,0-.333,1.091l1.261,11.312a1.389,1.389,0,0,0,1.382,1.247,1.386,1.386,0,0,0,.371-.051l3.521-.92a1.225,1.225,0,0,0,.589-.3,1.492,1.492,0,0,0,.471-1.109l-.486-10.285a1.469,1.469,0,0,0-1.43-1.337l-4.254-.144Zm7.4.545a.876.876,0,0,0-.874.861l.392,10.6c.008.589.235.841.783.869l2.56.1a1.175,1.175,0,0,0,.77-.3,1.029,1.029,0,0,0,.348-.707l.818-10.335a.881.881,0,0,0-.821-.912l-2.084-.148Zm-18.489.369a1.362,1.362,0,0,0-.274.028l-3.9.586a1.689,1.689,0,0,0-1.106.687,1.668,1.668,0,0,0-.3,1.251c.21,1.227.489,2.7.615,3.347a20.846,20.846,0,0,1,.311,2.47l.02.23a.644.644,0,0,0,.635.63.622.622,0,0,0,.2-.034l4.929-1.437a.948.948,0,0,0,.385-.213,1.06,1.06,0,0,0,.343-.894l-.618-5.516A1.241,1.241,0,0,0-438.6-1622.612Zm6.989,5.8h0a.726.726,0,0,1,.727.609,6.823,6.823,0,0,0,1.624,2.137.156.156,0,0,0,.119.054.206.206,0,0,0,.135-.055.205.205,0,0,0,.069-.14,41.227,41.227,0,0,0-.242-5.182,15.671,15.671,0,0,0-.329-1.669c-.135-.581-.274-1.18-.359-1.761a2.163,2.163,0,0,0-1.973-1.977,1.8,1.8,0,0,0-.372.04l-3.749.751a1.658,1.658,0,0,0-1.044.746,1.651,1.651,0,0,0-.206,1.279c.043.154.087.311.132.466a10.883,10.883,0,0,1,.3,1.175c.029.174.073.428.125.73.161.937.4,2.348.534,3.25a.821.821,0,0,0,.812.624.858.858,0,0,0,.183-.02l1.243-.37a18.353,18.353,0,0,1,1.967-.646A1.3,1.3,0,0,1-431.608-1616.814Z" transform="translate(670 1769)" fill="#5e5fab"/>
      <g id="Group_2" data-name="Group 2" transform="translate(-327 -285)">
        <text id="V" transform="translate(452 360)" fill="#5e5fab" font-size="110" font-family="MuseoModerno" font-weight="500"><tspan x="0" y="126">V</tspan></text>
      </g>
    </g>
    <text id="voting_queue" data-name="voting queue" transform="translate(156 332)" fill="#5e5fab" stroke="rgba(0,0,0,0)" stroke-miterlimit="10" stroke-width="1" font-size="20" font-family="AvenirNext-Regular, Avenir Next"><tspan x="0" y="20">voting queue</tspan></text>
  </g>
</svg>
